<?xml version="1.0" standalone="no"?>
<!DOCTYPE svg>
<svg version="1.0" xmlns="http://www.w3.org/2000/svg"
 width="75.000000pt" height="75.000000pt" viewBox="0 0 74.000000 74.000000"
 preserveAspectRatio="xMidYMid meet">

<g transform="translate(0.000000,74.000000) scale(0.100000,-0.100000)"
fill="#862e44" stroke="none">
<path d="M0 370 l0 -370 370 0 370 0 0 370 0 370 -370 0 -370 0 0 -370z m720
0 l0 -350 -347 2 -348 3 -3 335 c-1 184 0 341 3 347 3 10 82 13 350 13 l345 0
0 -350z"/>
<path d="M80 525 l0 -136 133 3 132 3 3 133 3 132 -136 0 -135 0 0 -135z"/>
<path d="M400 525 l0 -136 133 3 132 3 3 133 3 132 -136 0 -135 0 0 -135z"/>
<path d="M80 210 l0 -130 135 0 135 0 0 130 0 130 -135 0 -135 0 0 -130z"/>
<path d="M400 210 l0 -130 135 0 135 0 0 130 0 130 -135 0 -135 0 0 -130z"/>
</g>
</svg>
